<?xml version="1.0" encoding="utf-8"?>
<!-- Generator: Adobe Illustrator 18.0.0, SVG Export Plug-In . SVG Version: 6.00 Build 0)  -->
<!DOCTYPE svg PUBLIC "-//W3C//DTD SVG 1.1//EN" "http://www.w3.org/Graphics/SVG/1.1/DTD/svg11.dtd">
<svg version="1.1" xmlns="http://www.w3.org/2000/svg" xmlns:xlink="http://www.w3.org/1999/xlink" x="0px" y="0px"
	 viewBox="397.5 190 105 120" enable-background="new 397.5 190 105 120" xml:space="preserve">
<g id="Layer_2">
	<polyline fill="#FFFFFF" points="404,217 486,200 495.1,292.7 404.7,300.3 405,216.8 	"/>
</g>
<g id="Layer_1">
	<g>
		<g>
			<g>
				<path fill="#EC1C24" d="M400,305.9l0.1-92.2l89.2-19.6L500,296.6L400,305.9z M407.4,219.4l-0.1,78.4l84.7-7.8l-9-87L407.4,219.4
					z"/>
			</g>
			<g>
				<path fill="#231F20" d="M459,254.1l-1.8,5.7c-0.3,0.6-0.6,1.5-0.8,2.9v5.4h-1.1v-5.4c-0.1-0.5-0.3-0.8-0.4-1.5
					c-0.3-0.8-0.5-1.3-0.5-1.5l-1.7-5.7c0,0,0,0,0-0.1h1.2l1.9,7.1l1.9-7.1L459,254.1L459,254.1 M451.5,268h-1.2l-2.6-7.5l0.2-0.3
					h2.2v-5h-3.2v12.9h-1.2V254h4.7c0.3,0,0.6,0.1,0.8,0.3c0.2,0.2,0.3,0.5,0.3,0.7v5.4c0,0.7-0.5,1-1.3,1c-0.1,0-0.3,0-0.4,0
					c-0.2,0-0.3,0-0.4,0C449.9,263.6,450.6,265.9,451.5,268z M443.6,268H439V254h4.6v1.1h-3.2v5.3h2.9v1.1h-3.1v5.4h3.2L443.6,268
					L443.6,268z M437.3,268h-4.5V254h1.3v12.9h3.2L437.3,268L437.3,268z M431,268h-4.5V254h1.2v12.9h3.2V268z M423.1,263.8l-1.2-7.6
					l-1.3,7.6H423.1z M425,268h-1.2l-0.6-3.1h-2.8l-0.5,3.1h-1.3V268l2.5-14h1.2L425,268z M417,267c0,0.3-0.1,0.6-0.3,0.7
					c-0.2,0.2-0.5,0.3-0.7,0.3h-3.7c-0.3,0-0.6-0.1-0.7-0.3c-0.2-0.2-0.3-0.5-0.3-0.7v-12c0-0.3,0.1-0.6,0.3-0.7
					c0.2-0.2,0.5-0.3,0.7-0.3h3.7c0.3,0,0.6,0.1,0.7,0.3c0.2,0.2,0.3,0.5,0.3,0.7v3.2h-1.2V255h-3.2v11.9h3.2V262h-1.5V261h2.8
					L417,267L417,267z M431.3,239.5h-2.2v12.9h-1.3v-12.9h-2.2v-1.1h5.6L431.3,239.5L431.3,239.5z M424.6,252.4h-1.2l-2.6-7.5
					l0.2-0.3h2.2v-5.2h-3.2v12.9h-1.3v-14h4.7c0.3,0,0.6,0.1,0.7,0.3c0.2,0.2,0.3,0.5,0.3,0.6v5.4c0,0.7-0.5,1-1.3,1
					c-0.1,0-0.3,0-0.4,0c-0.1,0-0.3,0-0.4,0C423.1,247.9,423.9,250.2,424.6,252.4z M415.1,248.2l-1.2-7.6l-1.2,7.6H415.1z
					 M416.9,252.4h-1.2l-0.6-3.2h-2.8l-0.6,3.2h-1.2l0,0l2.7-14h1.2L416.9,252.4z M451.5,236.7h-1.8l-3.2-8.9c0.1,0.5,0.2,0.8,0.2,1
					v7.8h-2v-14h1.8l3.2,8.6c-0.1-0.5-0.2-0.8-0.2-1v-7.6h2.1C451.5,222.7,451.5,236.7,451.5,236.7z M442.7,236.7h-2.1v-14h2.1
					V236.7z M439.2,236.7h-2.1l-2.3-6.5c0,0,0-0.5,0-1.2h2v-4.5h-2.7v12.3H432v-14.1h5.7c0.8,0,1.3,0.5,1.3,1.2v5.1
					c0,0.6-0.3,1-0.6,1.1c-0.3,0.1-0.8,0.2-1.3,0.2L439.2,236.7z M430.3,236.7h-2.1v-14h2.1V236.7z M426.5,236.7h-2.1v-6.3h-2.9v6.3
					h-2.1v-14.1h2.1v5.8h2.9v-5.8h2.1V236.7z M417.8,235.5c0,0.8-0.5,1.3-1.2,1.3h-4.3c-0.8,0-1.2-0.5-1.2-1.3v-3.2h2.1v2.9h2.6
					v-2.8l-4.3-4c-0.3-0.3-0.4-0.8-0.4-1.2V224c0-0.8,0.5-1.2,1.2-1.2h4.3c0.8,0,1.2,0.5,1.2,1.2v3.1h-2.1v-2.7h-2.5v2.7l4.4,3.9
					c0.3,0.3,0.5,0.6,0.5,1.1L417.8,235.5L417.8,235.5z"/>
			</g>
		</g>
	</g>
</g>
</svg>
